<?xml version="1.0" standalone="no"?>
<!DOCTYPE svg PUBLIC "-//W3C//DTD SVG 20010904//EN"
 "http://www.w3.org/TR/2001/REC-SVG-20010904/DTD/svg10.dtd">
<svg version="1.0" xmlns="http://www.w3.org/2000/svg"
 width="603.000000pt" height="603.000000pt" viewBox="0 0 603.000000 603.000000"
 preserveAspectRatio="xMidYMid meet">
<metadata>
Created by potrace 1.11, written by Peter Selinger 2001-2013
</metadata>
<g transform="translate(0.000000,603.000000) scale(0.100000,-0.100000)"
fill="#000000" stroke="none">
<path d="M2084 5746 c-79 -25 -152 -100 -170 -176 -4 -19 -9 -406 -10 -860 -1
-454 -2 -827 -3 -830 0 -3 -227 -5 -503 -5 -277 1 -519 -3 -538 -8 -75 -19
-125 -92 -118 -174 5 -63 28 -99 84 -130 39 -23 39 -23 555 -23 405 0 518 -3
521 -12 2 -7 4 -101 4 -208 l-1 -195 -880 0 c-972 -1 -905 3 -970 -65 -27 -28
-30 -38 -30 -98 0 -54 4 -73 23 -100 51 -71 -11 -66 972 -72 l885 -5 0 -182
c1 -158 -2 -183 -15 -183 -8 -1 -240 -1 -515 -1 -475 0 -502 -1 -541 -20 -23
-11 -53 -36 -67 -56 -35 -49 -34 -141 2 -192 50 -70 47 -69 614 -69 279 0 511
-3 515 -7 4 -3 7 -365 7 -803 1 -795 1 -797 23 -838 60 -117 161 -168 289
-149 52 8 32 -5 864 570 222 153 406 283 407 287 2 4 8 8 12 8 8 0 90 56 310
210 25 18 221 153 435 301 215 148 426 294 470 325 44 30 321 222 615 425 294
204 556 387 582 407 57 46 91 109 96 183 10 133 -25 176 -302 368 -254 175
-677 468 -1443 998 -296 205 -616 426 -711 493 -96 66 -176 120 -178 120 -2 0
-12 7 -21 15 -74 61 -1083 747 -1111 755 -49 13 -107 12 -158 -4z m568 -903
c101 -69 219 -151 263 -181 44 -31 195 -135 335 -232 140 -97 284 -197 320
-222 96 -67 449 -310 575 -397 101 -69 216 -149 240 -168 6 -4 44 -30 85 -58
41 -27 80 -53 85 -58 6 -4 161 -112 345 -240 404 -279 385 -265 379 -271 -3
-3 -129 -91 -280 -195 -150 -104 -288 -200 -306 -213 -17 -12 -68 -48 -112
-78 -90 -61 -519 -357 -566 -390 -290 -206 -1578 -1090 -1582 -1087 -6 7 -6
1017 0 1023 3 3 164 5 358 5 216 0 370 4 394 10 110 30 153 177 77 266 -51 60
-67 62 -408 62 -170 0 -336 0 -369 1 l-60 0 1 183 1 182 659 5 c495 4 664 8
680 17 110 63 116 222 12 291 l-41 27 -654 0 -653 0 -1 25 c0 25 0 309 1 362
l0 27 384 3 c370 3 386 4 412 24 48 35 67 70 72 128 4 45 0 63 -18 93 -51 87
-63 89 -488 89 l-362 -1 0 35 c-1 48 -1 996 0 1043 0 47 -15 54 222 -110z"/>
</g>
</svg>
